<?xml version="1.0" encoding="utf-8"?>
<svg viewBox="0 0 500 100" xmlns="http://www.w3.org/2000/svg">
  <defs>
    <linearGradient gradientUnits="userSpaceOnUse" x1="2122.512" y1="190.673" x2="2122.512" y2="530" id="gradient-4" gradientTransform="matrix(0.914995, -0.403466, 0.436474, 0.989849, -2.684894, 861.741207)">
      <stop offset="0" style="stop-color: rgb(126, 61, 216);"/>
      <stop offset="1" style="stop-color: rgb(246, 241, 253);"/>
    </linearGradient>
  </defs>
  <g transform="matrix(0.17405900359153748, 0, 0, -0.17405900359153748, -7.680760860443112, 118.77181243896487)" fill="#000000" stroke="none">
    <path d="M130 617 l-25 -13 -3 -207 c-2 -214 2 -247 36 -247 34 0 42 21 42 112 l0 87 88 3 c82 3 87 4 90 26 6 42 -14 52 -99 52 l-79 0 0 55 c0 63 -12 57 126 55 63 -1 85 2 98 15 19 20 21 39 4 52 -21 17 -249 25 -278 10z" style="fill: rgb(142, 86, 221);"/>
    <path d="M981 619 c-117 -22 -198 -137 -184 -261 21 -182 243 -270 382 -151 60 51 85 104 84 180 -2 157 -127 260 -282 232z m160 -127 c49 -52 58 -108 27 -171 -26 -52 -83 -91 -133 -91 -72 1 -141 58 -158 130 -10 41 9 100 44 136 61 63 157 62 220 -4z" style="fill: rgb(142, 86, 221);"/>
    <path d="M481 598 c-5 -13 -9 -108 -10 -211 -3 -249 -10 -237 149 -237 94 0 122 3 134 16 19 19 20 38 3 52 -7 6 -55 13 -106 14 l-93 3 1 172 c1 107 -2 180 -9 193 -15 28 -58 27 -69 -2z" style="fill: rgb(142, 86, 221);"/>
    <path d="M1703 518 c-5 -7 -34 -53 -63 -103 -29 -49 -62 -100 -73 -112 -26 -30 -79 -31 -107 -3 -25 25 -14 52 30 75 34 17 45 46 30 75 -13 24 -13 24 -56 4 -67 -32 -97 -117 -66 -188 26 -56 67 -80 129 -73 57 6 87 34 149 142 27 47 52 85 56 85 8 0 33 -31 102 -126 30 -42 58 -68 88 -83 80 -38 124 -26 233 64 132 109 182 112 351 18 115 -65 165 -83 227 -83 41 0 107 24 119 43 10 16 10 49 -2 67 -8 12 -14 12 -45 -3 -71 -34 -159 -15 -274 57 -58 37 -163 76 -204 76 -58 0 -107 -20 -160 -66 -165 -141 -214 -138 -322 15 -52 75 -106 131 -125 131 -4 0 -12 -6 -17 -12z" style="fill: url('#gradient-4');"/>
  </g>
</svg>