<svg width="72" height="46" viewBox="0 0 72 46" fill="none" xmlns="http://www.w3.org/2000/svg">
<g clip-path="url(#clip0_7611_402034)">
<path d="M18 12H2C0.89543 12 0 12.6618 0 13.4783V44.5217C0 45.3382 0.89543 46 2 46H18C19.1046 46 20 45.3382 20 44.5217V13.4783C20 12.6618 19.1046 12 18 12Z" fill="#4680FF" fill-opacity="0.4"/>
<path d="M17 15H3C2.44772 15 2 15.4477 2 16V18C2 18.5523 2.44772 19 3 19H17C17.5523 19 18 18.5523 18 18V16C18 15.4477 17.5523 15 17 15Z" fill="#4680FF" fill-opacity="0.4"/>
<path d="M11 21H3C2.44772 21 2 21.4477 2 22V24C2 24.5523 2.44772 25 3 25H11C11.5523 25 12 24.5523 12 24V22C12 21.4477 11.5523 21 11 21Z" fill="#4680FF"/>
<path d="M17 27H3C2.44772 27 2 27.4477 2 28V30C2 30.5523 2.44772 31 3 31H17C17.5523 31 18 30.5523 18 30V28C18 27.4477 17.5523 27 17 27Z" fill="#4680FF" fill-opacity="0.4"/>
<path d="M17 33H3C2.44772 33 2 33.4477 2 34V36C2 36.5523 2.44772 37 3 37H17C17.5523 37 18 36.5523 18 36V34C18 33.4477 17.5523 33 17 33Z" fill="#4680FF" fill-opacity="0.4"/>
<path d="M17 39H3C2.44772 39 2 39.4477 2 40V42C2 42.5523 2.44772 43 3 43H17C17.5523 43 18 42.5523 18 42V40C18 39.4477 17.5523 39 17 39Z" fill="#4680FF" fill-opacity="0.4"/>
<path d="M69.12 0H2.88C1.28942 0 0 0.89543 0 2V8C0 9.10457 1.28942 10 2.88 10H69.12C70.7106 10 72 9.10457 72 8V2C72 0.89543 70.7106 0 69.12 0Z" fill="#4680FF"/>
<path d="M70 12H24C22.8954 12 22 12.8954 22 14V44C22 45.1046 22.8954 46 24 46H70C71.1046 46 72 45.1046 72 44V14C72 12.8954 71.1046 12 70 12Z" fill="#4680FF" fill-opacity="0.15"/>
</g>
<defs>
<clipPath id="clip0_7611_402034">
<rect width="72" height="46" fill="white"/>
</clipPath>
</defs>
</svg>
