<svg width="72" height="46" viewBox="0 0 72 46" fill="none" xmlns="http://www.w3.org/2000/svg">
<g clip-path="url(#clip0_7611_401979)">
<rect width="8" height="46" rx="1" fill="#4680FF" fill-opacity="0.4"/>
<rect x="2" y="2" width="4" height="4" rx="1" fill="#4680FF"/>
<rect x="2" y="8" width="4" height="4" rx="1" fill="#4680FF" fill-opacity="0.4"/>
<rect x="2" y="14" width="4" height="4" rx="1" fill="#4680FF" fill-opacity="0.4"/>
<rect x="2" y="20" width="4" height="4" rx="1" fill="#4680FF" fill-opacity="0.4"/>
<rect x="2" y="26" width="4" height="4" rx="1" fill="#4680FF" fill-opacity="0.4"/>
<rect x="2" y="32" width="4" height="4" rx="1" fill="#4680FF" fill-opacity="0.4"/>
<rect x="2" y="38" width="4" height="4" rx="1" fill="#4680FF" fill-opacity="0.4"/>
<path d="M69.52 0H12.48C11.1103 0 10 0.89543 10 2V8C10 9.10457 11.1103 10 12.48 10H69.52C70.8897 10 72 9.10457 72 8V2C72 0.89543 70.8897 0 69.52 0Z" fill="#4680FF" fill-opacity="0.4"/>
<path d="M69.52 12H12.48C11.1103 12 10 12.8954 10 14V44C10 45.1046 11.1103 46 12.48 46H69.52C70.8897 46 72 45.1046 72 44V14C72 12.8954 70.8897 12 69.52 12Z" fill="#4680FF" fill-opacity="0.15"/>
</g>
<defs>
<clipPath id="clip0_7611_401979">
<rect width="72" height="46" fill="white"/>
</clipPath>
</defs>
</svg>
