<svg width="72" height="46" viewBox="0 0 72 46" fill="none" xmlns="http://www.w3.org/2000/svg">
<g clip-path="url(#clip0_7611_401959)">
<path d="M69.12 0H2.88C1.28942 0 0 0.89543 0 2V8C0 9.10457 1.28942 10 2.88 10H69.12C70.7106 10 72 9.10457 72 8V2C72 0.89543 70.7106 0 69.12 0Z" fill="#4680FF" fill-opacity="0.4"/>
<path d="M19 3H5C4.44772 3 4 3.44772 4 4V6C4 6.55228 4.44772 7 5 7H19C19.5523 7 20 6.55228 20 6V4C20 3.44772 19.5523 3 19 3Z" fill="#4680FF" fill-opacity="0.4"/>
<path d="M49.1875 3H37.8125C37.3638 3 37 3.44772 37 4V6C37 6.55228 37.3638 7 37.8125 7H49.1875C49.6362 7 50 6.55228 50 6V4C50 3.44772 49.6362 3 49.1875 3Z" fill="#4680FF" fill-opacity="0.4"/>
<path d="M67.125 3H54.875C54.3918 3 54 3.44772 54 4V6C54 6.55228 54.3918 7 54.875 7H67.125C67.6082 7 68 6.55228 68 6V4C68 3.44772 67.6082 3 67.125 3Z" fill="#4680FF" fill-opacity="0.4"/>
<path d="M32 3H24C23.4477 3 23 3.44772 23 4V6C23 6.55228 23.4477 7 24 7H32C32.5523 7 33 6.55228 33 6V4C33 3.44772 32.5523 3 32 3Z" fill="#4680FF"/>
<path d="M69.12 12H2.88C1.28942 12 0 12.8954 0 14V44C0 45.1046 1.28942 46 2.88 46H69.12C70.7106 46 72 45.1046 72 44V14C72 12.8954 70.7106 12 69.12 12Z" fill="#4680FF" fill-opacity="0.15"/>
</g>
<defs>
<clipPath id="clip0_7611_401959">
<rect width="72" height="46" fill="white"/>
</clipPath>
</defs>
</svg>
